<?xml version="1.0" encoding="UTF-8"?>
<!DOCTYPE svg PUBLIC "-//W3C//DTD SVG 1.1//EN" "http://www.w3.org/Graphics/SVG/1.1/DTD/svg11.dtd">
<!-- Creator: CorelDRAW -->
<svg xmlns="http://www.w3.org/2000/svg" xml:space="preserve" width="2048px" height="2048px" style="shape-rendering:geometricPrecision; text-rendering:geometricPrecision; image-rendering:optimizeQuality; fill-rule:evenodd; clip-rule:evenodd"
viewBox="0 0 2048 2048"
 xmlns:xlink="http://www.w3.org/1999/xlink">
 <defs>
  <style type="text/css">
   <![CDATA[
    .fil2 {fill:none}
    .fil0 {fill:#795548}
    .fil1 {fill:#FFFFFE}
    .fil3 {fill:#212121;fill-rule:nonzero}
   ]]>
  </style>
 </defs>
 <g id="Layer_x0020_1">
  <metadata id="CorelCorpID_0Corel-Layer"/>
  <rect class="fil0" width="2048" height="2048" rx="256.001" ry="256.001"/>
  <path class="fil1" d="M321.029 314.208l1405.88 0c26.7414,0 50.9611,10.8213 68.5465,28.3276 17.6516,17.5736 28.5449,41.7851 28.5449,68.4745l0 987.359c0,26.654 -10.9536,50.8205 -28.5874,68.3587 -17.6291,17.5358 -41.8973,28.3831 -68.504,28.3831l-222.011 0 0 154.728c0,24.0886 -6.09095,43.7634 -16.689,58.0371 -6.17363,8.3126 -13.7421,14.726 -22.4823,19.1232 -8.90906,4.48229 -18.5882,6.78308 -28.8036,6.78308 -17.6032,0 -37.0217,-6.89646 -56.5571,-21.404l-0.125197 0 -290.233 -216.978 -768.981 0c-26.8382,0 -51.0556,-10.878 -68.589,-28.4091 -17.5878,-17.5902 -28.441,-41.889 -28.441,-68.6221l0 -987.131c0,-26.8559 10.8224,-51.1063 28.3725,-68.6575 17.5512,-17.55 41.8016,-28.3725 68.6575,-28.3725zm592.543 712.725l273.871 0c7.38426,0 14.0421,-2.95866 18.8256,-7.73977 4.7067,-4.70315 7.62166,-11.3008 7.62166,-18.6721 0,-7.39016 -2.91024,-13.9973 -7.61457,-18.7004l-0.125197 0c-4.78111,-4.77992 -11.3953,-7.73741 -18.7075,-7.73741l-273.871 0c-7.39607,0 -14.0551,2.95748 -18.8386,7.73859 -4.70552,4.70433 -7.61693,11.3091 -7.61693,18.6992 0,7.37599 2.9126,13.976 7.62048,18.6791 4.77992,4.77638 11.4378,7.73268 18.8351,7.73268zm273.871 64.0016l-273.871 0c-24.8882,0 -47.4615,-10.1209 -63.8351,-26.4839 -16.448,-16.4362 -26.6221,-39.0461 -26.6221,-63.9296 0,-24.8941 10.1728,-47.5099 26.6185,-63.9497 16.3736,-16.3689 38.9481,-26.4898 63.8386,-26.4898l273.871 0c24.9756,0 47.589,10.1221 63.9579,26.4886l-0.0625985 0.0625985c16.4079,16.4362 26.5536,39.0272 26.5536,63.8882 0,24.8823 -10.1787,47.4886 -26.6232,63.9225 -16.3772,16.3665 -38.954,26.491 -63.8256,26.491zm-120.927 -384.94l-136.475 0.166536 -0.250394 0c-7.4693,-0.068504 -14.2465,2.82756 -19.1587,7.58741 -4.88386,4.73386 -7.95709,11.2406 -8.06575,18.4311l0 0.124016c-0.116929,7.29922 2.74134,13.9618 7.45276,18.8268 4.7693,4.92402 11.3634,8.03032 18.6449,8.14961l137.414 -0.0614174 0 -0.125197c7.85316,0 14.713,-2.64921 19.4173,-7.09961 4.30748,-4.07599 7.01693,-9.88111 7.12914,-16.6748 0.124016,-7.76457 -3.04961,-15.2339 -8.26064,-20.8252 -4.74095,-5.08701 -11.0622,-8.38229 -17.8477,-8.49922zm-136.297 -63.5847l136.771 -0.166536 0.499607 0c25.1481,0.402756 47.5937,11.5512 63.6249,28.7504 15.9543,17.1189 25.6583,40.513 25.2614,65.3245 -0.408662,24.8067 -10.7138,46.3926 -27.1299,61.9252 -16.4705,15.5811 -38.8406,24.8516 -63.1678,24.8516l0 -0.125197 -137.903 0.0614174 -0.499607 0c-24.965,-0.400394 -47.3717,-10.8449 -63.4075,-27.4016 -16.0949,-16.6181 -25.852,-39.3756 -25.4528,-64.3252l0.00236221 0c0.411024,-24.9898 10.8095,-47.3091 27.3154,-63.3071 16.552,-16.0382 39.2174,-25.7953 64.0867,-25.5874zm484.947 246.588c3.54213,21.698 3.64488,44.7626 3.75591,71.53l0 0.125197c0.034252,10.0854 0.34252,36.2362 0.34252,36.3107l0 0.625985c-0.381496,36.5847 -6.24331,70.3004 -17.2654,100.311 -11.3563,30.9225 -28.1811,58.1185 -50.1485,80.732 -22.0299,22.6689 -48.4843,40.0359 -78.5127,51.763 -29.3162,11.4484 -62.0977,17.4827 -97.519,17.7744l-0.250394 0.125197 -245.423 0 0 -0.111024c-6.30355,0.144095 -3.70276,0.145276 -4.60158,0.145276 -38.7815,0 -73.591,-5.63268 -104.2,-16.8154 -31.7693,-11.6091 -58.6654,-29.0658 -80.4497,-52.2839 -22.1209,-23.537 -36.6496,-50.954 -45.5752,-83.2879 -8.44135,-30.5764 -11.7378,-64.9134 -11.7378,-104.212l0.125197 -0.499607c0.0177165,-1.11496 -0.0401575,-2.94921 -0.0968505,-4.75867 -0.0484252,-1.54488 -0.0980316,-3.09921 -0.103937,-5.72245l-0.125197 0 0 -0.227953 0 -0.227953 0.125197 -0.125197c0.00708662,-1.19528 0.0177165,-2.04331 0.0295276,-2.47677l0.00354331 0 0.0720473 -2.72717 0.0011811 0 0.129921 -256.683 0 -1.5c1.74095,-37.024 10.9748,-67.1587 22.9158,-91.3761 11.9634,-24.2634 26.5583,-42.4016 39.0685,-55.5827 20.765,-21.8764 45.7678,-38.3422 74.7981,-49.3099 28.2059,-10.6583 59.8666,-16.0264 94.7753,-16.0264l0.624804 0.125197 1.71024 0.034252 159.662 -0.131102 0.624804 0 1.51654 0.0354331 0.250394 0c60.8693,1.68898 113.545,24.0898 151.286,61.0583 37.5012,36.7323 59.9079,87.5233 60.7158,146.432 1.44685,16.4929 1.71969,32.2406 0.852757,47.1674 -0.19252,3.31654 -0.438189,6.59764 -0.733465,9.84331 9.67914,1.52362 19.5,3.73347 29.1981,6.94489 24.2103,8.01497 47.4449,21.9118 66.0308,45.913 16.0949,20.7945 24.1299,42.5977 28.128,67.089zm-59.9953 71.7804c-0.0980316,-23.7898 -0.188977,-44.2855 -3.00473,-61.5308 -2.35984,-14.4543 -6.84922,-26.9977 -15.6272,-38.3386 -9.57993,-12.3709 -22.1693,-19.7386 -35.5323,-24.1618 -15.4417,-5.113 -32.0114,-6.61418 -46.9276,-7.07363l-39.0945 -1.20591 8.8441 -37.9193c2.59488,-11.1295 4.2626,-22.7669 4.963,-34.8414 0.734646,-12.6543 0.510237,-25.7091 -0.7063,-39.091l-0.125197 -2.74961c-0.297638,-41.6492 -15.7417,-77.2961 -41.7355,-102.757 -26.4189,-25.878 -64.0926,-41.5819 -108.287,-42.8079l0 -0.00590552 -1.24488 -0.0295276 -159.658 0.131102 -0.624804 0 -1.11024 -0.022441 0 0.113386c-27.4099,0 -51.5528,3.94488 -72.2753,11.7744 -19.9028,7.5189 -36.9674,18.7264 -51.0485,33.561 -9.04016,9.52442 -19.5567,22.5697 -28.0677,39.8315 -8.53229,17.3055 -15.1429,39.052 -16.415,66.1264l-0.0011811 0 -0.129921 257.059 0 1.87559c-0.0708662,1.16929 -0.056693,-0.137008 -0.0755906,0.601182l0 0.125197 -0.0259843 0.851575 0.121654 0 0 0.227953 0 0.227953 -0.125197 0c0,0.504331 0.0519685,2.09882 0.103937,3.72166 0.068504,2.19095 0.138189,4.39843 0.103937,7.25906l0.11811 0c0,34.2414 2.5937,63.1512 9.23623,87.2115 6.15709,22.3063 15.9142,40.9382 30.5752,56.5382 14.9256,15.9071 33.5492,27.9402 55.7008,36.0343 23.3244,8.52166 50.8666,12.8138 82.4493,12.8138 3.98032,0 -0.0708662,0.180709 3.97677,0.090945l0.624804 -0.125197 245.423 0 0 0.122835c27.2457,-0.250394 52.2933,-4.84134 74.5182,-13.5201 21.5953,-8.43308 40.4693,-20.7697 56.0126,-36.763 15.5516,-16.0099 27.5988,-35.6303 35.8996,-58.2319 8.59489,-23.4047 13.1835,-49.7941 13.5106,-78.5197 -0.034252,-3.06614 -0.303544,-26.6055 -0.338977,-36.6036z"/>
  <rect class="fil2" x="255.999" y="255.999" width="1536" height="1536"/>
  <path class="fil3" d="M1436.92 1669.99c-0.0330709,0.0366142 -0.0484252,0.0555119 0,0.0354331l0 -0.0354331z"/>
  <path class="fil3" d="M1436.92 1669.99l0 0.0354331 0.0531496 -0.0248032c0.0720473,-0.0354331 0.00708662,-0.0200788 -0.0271654,-0.0377953l-0.0259843 0.0271654z"/>
 </g>
</svg>
