<svg width="48" height="48" viewBox="0 0 48 48" fill="none" xmlns="http://www.w3.org/2000/svg">
<rect width="48" height="48" fill="white" fill-opacity="0.01"/>
<path fill-rule="evenodd" clip-rule="evenodd" d="M14.7275 35.1805L24.2725 35.1815L18.7955 29.7275L14.7275 35.1805Z" fill="#000000"/>
<mask id="mask0_19370_151211" style="mask-type:luminance" maskUnits="userSpaceOnUse" x="13" y="28" width="13" height="9">
<path fill-rule="evenodd" clip-rule="evenodd" d="M18.695 28.3687C18.303 28.3957 17.944 28.5947 17.708 28.9097L13.636 34.3637C13.327 34.7777 13.277 35.3297 13.507 35.7917C13.737 36.2537 14.207 36.5457 14.722 36.5457H24.279C24.829 36.5457 25.325 36.2107 25.535 35.7017C25.743 35.1907 25.625 34.6007 25.233 34.2117L19.749 28.7577C19.496 28.5077 19.153 28.3637 18.802 28.3637C18.766 28.3637 18.73 28.3657 18.695 28.3687ZM18.947 31.7967L20.979 33.8177H17.436L18.947 31.7967Z" fill="white"/>
</mask>
<g mask="url(#mask0_19370_151211)">
<path fill-rule="evenodd" clip-rule="evenodd" d="M8.36377 41.5467H30.6368V23.3637H8.36377V41.5467Z" fill="#000000"/>
</g>
<path fill-rule="evenodd" clip-rule="evenodd" d="M22.9092 35.1814H39.2722L31.0912 25.6374L22.9092 35.1814Z" fill="#000000"/>
<mask id="mask1_19370_151211" style="mask-type:luminance" maskUnits="userSpaceOnUse" x="21" y="24" width="20" height="13">
<path fill-rule="evenodd" clip-rule="evenodd" d="M30.0561 24.7277L21.8741 34.2917C21.5281 34.6957 21.4481 35.2657 21.6701 35.7497C21.8931 36.2347 22.3761 36.5457 22.9081 36.5457H39.2721C39.8061 36.5457 40.2891 36.2347 40.5111 35.7497C40.7351 35.2657 40.6541 34.6957 40.3081 34.2917L32.1261 24.7277C31.8671 24.4247 31.4791 24.2727 31.0911 24.2727C30.7031 24.2727 30.3151 24.4247 30.0561 24.7277ZM31.0911 27.7137L36.3071 33.8137H25.8741L31.0911 27.7137Z" fill="white"/>
</mask>
<g mask="url(#mask1_19370_151211)">
<path fill-rule="evenodd" clip-rule="evenodd" d="M16.5449 41.5457H45.6359V19.2727H16.5449V41.5457Z" fill="#000000"/>
</g>
<mask id="mask2_19370_151211" style="mask-type:luminance" maskUnits="userSpaceOnUse" x="20" y="18" width="6" height="7">
<path fill-rule="evenodd" clip-rule="evenodd" d="M20.1812 21.5457C20.1812 23.0517 21.4032 24.2727 22.9092 24.2727C24.4152 24.2727 25.6372 23.0517 25.6372 21.5457C25.6372 20.0397 24.4152 18.8187 22.9092 18.8187C21.4032 18.8187 20.1812 20.0397 20.1812 21.5457Z" fill="white"/>
</mask>
<g mask="url(#mask2_19370_151211)">
<path fill-rule="evenodd" clip-rule="evenodd" d="M15.1821 29.2727H30.6371V13.8187H15.1821V29.2727Z" fill="#000000"/>
</g>
<path fill-rule="evenodd" clip-rule="evenodd" d="M12 33.2627C10.187 33.2067 8.727 31.7247 8.727 29.8987V12.1017C8.727 10.2417 10.24 8.72669 12.101 8.72669H29.899C31.724 8.72669 33.207 10.1877 33.262 11.9997H35.899C35.932 11.9997 35.963 12.0047 35.995 12.0047C35.942 8.6847 33.23 5.99969 29.899 5.99969H12.101C8.736 5.99969 6 8.7367 6 12.1017V29.8987C6 33.2307 8.685 35.9437 12.005 35.9947C12.004 35.9627 12 35.9307 12 35.8987V33.2627Z" fill="#000000"/>
<path fill-rule="evenodd" clip-rule="evenodd" d="M39.2774 35.8984C39.2774 37.7584 37.7634 39.2724 35.9044 39.2724H18.1064C16.2794 39.2724 14.7974 37.8124 14.7424 36.0004C14.7414 35.9654 14.7324 35.9334 14.7324 35.8984V33.2724V18.1014C14.7324 16.2414 16.2454 14.7274 18.1064 14.7274H33.2774H35.9044C35.9384 14.7274 35.9704 14.7364 36.0054 14.7374C37.8174 14.7924 39.2774 16.2764 39.2774 18.1014V35.8984ZM36.0004 12.0044C35.9674 12.0044 35.9364 12.0004 35.9044 12.0004H33.2664H18.1064C14.7414 12.0004 12.0054 14.7364 12.0054 18.1014V33.2624V35.8984C12.0054 35.9304 12.0094 35.9624 12.0094 35.9954C12.0624 39.3144 14.7744 42.0004 18.1064 42.0004H35.9044C39.2674 42.0004 42.0054 39.2624 42.0054 35.8984V18.1014C42.0054 14.7694 39.3194 12.0564 36.0004 12.0044Z" fill="#000000"/>
<mask id="mask3_19370_151211" style="mask-type:luminance" maskUnits="userSpaceOnUse" x="13" y="35" width="28" height="6">
<path fill-rule="evenodd" clip-rule="evenodd" d="M13.3638 35.1817V35.8997C13.3638 38.5157 15.4848 40.6367 18.1008 40.6367H35.8998C38.5148 40.6367 40.6368 38.5157 40.6368 35.8997V35.1817H13.3638Z" fill="white"/>
</mask>
<g mask="url(#mask3_19370_151211)">
<path fill-rule="evenodd" clip-rule="evenodd" d="M8.36377 45.6367H45.6368V30.1817H8.36377V45.6367Z" fill="#000000"/>
</g>
</svg>
