<?xml version="1.0" standalone="no"?>
<svg xmlns:xlink="http://www.w3.org/1999/xlink" id="wave" style="transform:rotate(0deg); transition: 0.3s" viewBox="0 0 1440 120" version="1.1" xmlns="http://www.w3.org/2000/svg"><defs><linearGradient id="sw-gradient-0" x1="0" x2="0" y1="1" y2="0"><stop stop-color="rgba(255, 255, 255, 1)" offset="0%"/><stop stop-color="rgba(246.241, 246.241, 246.241, 1)" offset="100%"/></linearGradient></defs><path style="transform:translate(0, 0px); opacity:1" fill="url(#sw-gradient-0)" d="M0,0L80,8C160,16,320,32,480,42C640,52,800,56,960,48C1120,40,1280,20,1440,14C1600,8,1760,16,1920,20C2080,24,2240,24,2400,30C2560,36,2720,48,2880,52C3040,56,3200,52,3360,44C3520,36,3680,24,3840,28C4000,32,4160,52,4320,50C4480,48,4640,24,4800,18C4960,12,5120,24,5280,36C5440,48,5600,60,5760,70C5920,80,6080,88,6240,88C6400,88,6560,80,6720,68C6880,56,7040,40,7200,34C7360,28,7520,32,7680,28C7840,24,8000,12,8160,6C8320,0,8480,0,8640,8C8800,16,8960,32,9120,32C9280,32,9440,16,9600,14C9760,12,9920,24,10080,26C10240,28,10400,20,10560,28C10720,36,10880,60,11040,72C11200,84,11360,84,11440,84L11520,84L11520,120L11440,120C11360,120,11200,120,11040,120C10880,120,10720,120,10560,120C10400,120,10240,120,10080,120C9920,120,9760,120,9600,120C9440,120,9280,120,9120,120C8960,120,8800,120,8640,120C8480,120,8320,120,8160,120C8000,120,7840,120,7680,120C7520,120,7360,120,7200,120C7040,120,6880,120,6720,120C6560,120,6400,120,6240,120C6080,120,5920,120,5760,120C5600,120,5440,120,5280,120C5120,120,4960,120,4800,120C4640,120,4480,120,4320,120C4160,120,4000,120,3840,120C3680,120,3520,120,3360,120C3200,120,3040,120,2880,120C2720,120,2560,120,2400,120C2240,120,2080,120,1920,120C1760,120,1600,120,1440,120C1280,120,1120,120,960,120C800,120,640,120,480,120C320,120,160,120,80,120L0,120Z"/></svg>