<?xml version="1.0" standalone="no"?>
<svg xmlns:xlink="http://www.w3.org/1999/xlink" id="wave" style="transform:rotate(0deg); transition: 0.3s" viewBox="0 0 1440 180" version="1.1" xmlns="http://www.w3.org/2000/svg"><defs><linearGradient id="sw-gradient-0" x1="0" x2="0" y1="1" y2="0"><stop stop-color="rgba(255, 255, 255, 1)" offset="0%"/><stop stop-color="rgba(246.241, 246.241, 246.241, 1)" offset="100%"/></linearGradient></defs><path style="transform:translate(0, 0px); opacity:1" fill="url(#sw-gradient-0)" d="M0,0L30,3C60,6,120,12,180,15C240,18,300,18,360,21C420,24,480,30,540,51C600,72,660,108,720,111C780,114,840,84,900,66C960,48,1020,42,1080,42C1140,42,1200,48,1260,48C1320,48,1380,42,1440,39C1500,36,1560,36,1620,33C1680,30,1740,24,1800,39C1860,54,1920,90,1980,108C2040,126,2100,126,2160,105C2220,84,2280,42,2340,33C2400,24,2460,48,2520,57C2580,66,2640,60,2700,48C2760,36,2820,18,2880,12C2940,6,3000,12,3060,27C3120,42,3180,66,3240,66C3300,66,3360,42,3420,51C3480,60,3540,102,3600,126C3660,150,3720,156,3780,147C3840,138,3900,114,3960,99C4020,84,4080,78,4140,69C4200,60,4260,48,4290,42L4320,36L4320,180L4290,180C4260,180,4200,180,4140,180C4080,180,4020,180,3960,180C3900,180,3840,180,3780,180C3720,180,3660,180,3600,180C3540,180,3480,180,3420,180C3360,180,3300,180,3240,180C3180,180,3120,180,3060,180C3000,180,2940,180,2880,180C2820,180,2760,180,2700,180C2640,180,2580,180,2520,180C2460,180,2400,180,2340,180C2280,180,2220,180,2160,180C2100,180,2040,180,1980,180C1920,180,1860,180,1800,180C1740,180,1680,180,1620,180C1560,180,1500,180,1440,180C1380,180,1320,180,1260,180C1200,180,1140,180,1080,180C1020,180,960,180,900,180C840,180,780,180,720,180C660,180,600,180,540,180C480,180,420,180,360,180C300,180,240,180,180,180C120,180,60,180,30,180L0,180Z"/></svg>